<svg xmlns="http://www.w3.org/2000/svg" width="88" height="35" fill="#0c29d0"><path d="M12.677 9.738C5.282 9.738 0 15.25 0 22.37S5.282 35 12.677 35c7.35 0 12.63-5.512 12.63-12.63S20.025 9.74 12.677 9.74zm5.97 12.63c0 3.95-2.4 7.028-5.97 7.028S6.66 26.32 6.66 22.37s2.434-7.028 6.017-7.028 5.97 3.077 5.97 7.028zM35.606 0h-6.522v34.45h6.522V0zM47.56 34.45V10.3h-6.522v24.16h6.522zm0-27.513v-5.56h-6.522v5.558h6.522zm22.152 5.97c-2.25-2.113-5.144-3.17-8.36-3.17-4.4 0-8.635 2.48-8.635 7.395 0 4.226 3.17 5.88 6.063 7.12 2.4 1.056 4.593 1.8 4.593 3.5 0 1.47-1.745 2.113-3.077 2.113-2.343 0-3.858-1.056-5.695-2.848l-3.72 3.858C53.544 33.53 56.85 35 60.618 35c4.685 0 9.278-2.434 9.278-7.762 0-4.593-3.95-6.155-7.073-7.44C60.8 18.97 59 18.2 59 16.673c0-1.148 1.102-1.837 2.343-1.837 1.837 0 3.537.92 4.777 2.02l3.583-3.95zM87.14 15.7V10.3h-6.155V4.96h-5.512l-1 5.328H71.57v5.42h2.894v10.06c0 1.424.092 2.848.46 4.042.873 3.123 3.4 5.2 7.165 5.2 1.883 0 4.18-.505 5.742-1.424l-2.02-4.823c-.827.413-1.608.7-2.618.7-1.378 0-1.93-.873-2.113-2.297-.092-.7-.092-1.332-.092-2.067v-9.37h6.155z"/></svg>