<?xml version="1.0" standalone="no"?>
<!DOCTYPE svg PUBLIC "-//W3C//DTD SVG 20010904//EN"
 "http://www.w3.org/TR/2001/REC-SVG-20010904/DTD/svg10.dtd">
<svg version="1.0" xmlns="http://www.w3.org/2000/svg"
 width="700.000000pt" height="700.000000pt" viewBox="0 0 700.000000 700.000000"
 preserveAspectRatio="xMidYMid meet">
<metadata>
Created by potrace 1.11, written by Peter Selinger 2001-2013
</metadata>
<g transform="translate(0.000000,700.000000) scale(0.100000,-0.100000)"
fill="#000000" stroke="none">
<path d="M3279 6996 c-2 -2 -44 -7 -94 -10 -506 -37 -1009 -185 -1450 -429
-113 -62 -333 -203 -355 -227 -3 -3 -21 -17 -40 -30 -38 -27 -38 -27 -150
-121 -201 -169 -467 -467 -586 -654 -10 -16 -21 -32 -25 -35 -3 -3 -36 -57
-74 -120 -196 -331 -342 -697 -416 -1045 -7 -33 -14 -64 -15 -70 -8 -35 -34
-198 -39 -240 -3 -27 -8 -60 -10 -73 -27 -160 -27 -673 1 -894 6 -48 41 -266
49 -312 26 -131 127 -479 164 -561 5 -11 26 -60 46 -110 107 -259 289 -570
447 -765 16 -19 32 -40 36 -45 48 -70 274 -304 402 -416 64 -56 244 -195 306
-237 347 -229 674 -377 1059 -477 131 -34 296 -70 370 -79 89 -11 131 -17 155
-21 142 -26 803 -26 882 -1 7 3 38 7 68 10 392 41 882 200 1255 408 425 237
809 578 1073 953 39 55 79 111 89 125 76 106 234 408 307 589 110 271 208 644
232 880 2 25 7 57 9 70 19 109 27 564 13 751 -58 735 -334 1428 -786 1974 -95
114 -292 315 -374 381 -34 28 -69 57 -77 66 -26 26 -200 153 -291 211 -446
290 -973 474 -1520 534 -36 4 -78 9 -95 11 -39 4 -562 13 -566 9z m421 -1560
c101 -14 115 -16 214 -42 430 -110 795 -419 1014 -859 119 -240 194 -515 219
-805 13 -150 5 -552 -11 -579 -2 -3 -7 -26 -10 -51 -9 -64 -15 -97 -32 -165
-8 -33 -16 -68 -19 -78 -17 -71 -62 -200 -99 -285 -172 -396 -432 -684 -774
-857 -78 -39 -189 -83 -252 -100 -40 -11 -98 -24 -129 -30 -19 -3 -37 -8 -41
-10 -27 -17 -345 -25 -460 -12 -216 25 -461 110 -643 224 -68 42 -197 146
-267 214 -94 92 -237 276 -278 359 -7 14 -22 43 -35 65 -79 140 -163 374 -202
565 -23 113 -29 153 -42 275 -9 82 -9 383 0 475 60 628 351 1161 792 1451 138
91 332 179 451 204 10 2 48 10 84 18 36 9 90 18 119 21 30 4 56 8 57 9 6 6
293 0 344 -7z"/>
</g>
</svg>
